name rise44.8762peak52.3436fall86.788.mot
datacolumns 19
datarows 18
range 20.42825600000000 20.45658500000000
endheader
time	ground_force1_vx	ground_force1_vy	ground_force1_vz	ground_force1_px	ground_force1_py	ground_force1_pz	ground_force2_vx	ground_force2_vy	ground_force2_vz	ground_force2_px	ground_force2_py	ground_force2_pz	ground_torque1_x	ground_torque1_y	ground_torque1_z	ground_torque2_x	ground_torque2_y	ground_torque2_z	
20.42825600000000	48.82957200000000	796.53354200000001	78.09097199999999	0.23326400000000	0.00000000000000	0.16373700000000	0.00000000000000	0.00000000000000	0.00000000000000	0.00000000000000	0.00000000000000	0.00000000000000	0.00000000000000	20.36589300000000	0.00000000000000	0.00000000000000	0.00000000000000	0.00000000000000	
20.42992000000000	48.16465000000000	799.07613600000002	78.06312600000000	0.23241300000000	0.00000000000000	0.16363500000000	0.00000000000000	0.00000000000000	0.00000000000000	0.00000000000000	0.00000000000000	0.00000000000000	0.00000000000000	20.39845500000000	0.00000000000000	0.00000000000000	0.00000000000000	0.00000000000000	
20.43159300000000	47.49166200000000	801.42818599999998	78.02839000000000	0.23156900000000	0.00000000000000	0.16353500000000	0.00000000000000	0.00000000000000	0.00000000000000	0.00000000000000	0.00000000000000	0.00000000000000	0.00000000000000	20.43105500000000	0.00000000000000	0.00000000000000	0.00000000000000	0.00000000000000	
20.43325800000000	46.81145600000000	803.58777599999996	77.98703100000000	0.23073300000000	0.00000000000000	0.16343600000000	0.00000000000000	0.00000000000000	0.00000000000000	0.00000000000000	0.00000000000000	0.00000000000000	0.00000000000000	20.46362900000000	0.00000000000000	0.00000000000000	0.00000000000000	0.00000000000000	
20.43492300000000	46.12483500000000	805.55332799999996	77.93922900000000	0.22990200000000	0.00000000000000	0.16334000000000	0.00000000000000	0.00000000000000	0.00000000000000	0.00000000000000	0.00000000000000	0.00000000000000	0.00000000000000	20.49608300000000	0.00000000000000	0.00000000000000	0.00000000000000	0.00000000000000	
20.43658800000000	45.43256200000000	807.32361400000002	77.88508600000000	0.22907500000000	0.00000000000000	0.16324500000000	0.00000000000000	0.00000000000000	0.00000000000000	0.00000000000000	0.00000000000000	0.00000000000000	0.00000000000000	20.52829200000000	0.00000000000000	0.00000000000000	0.00000000000000	0.00000000000000	
20.43825700000000	44.73536100000000	808.89777000000004	77.82462700000001	0.22825100000000	0.00000000000000	0.16315200000000	0.00000000000000	0.00000000000000	0.00000000000000	0.00000000000000	0.00000000000000	0.00000000000000	0.00000000000000	20.56010100000000	0.00000000000000	0.00000000000000	0.00000000000000	0.00000000000000	
20.43991600000000	44.03391600000000	810.27530500000000	77.75780600000000	0.22742900000000	0.00000000000000	0.16306000000000	0.00000000000000	0.00000000000000	0.00000000000000	0.00000000000000	0.00000000000000	0.00000000000000	0.00000000000000	20.59133100000000	0.00000000000000	0.00000000000000	0.00000000000000	0.00000000000000	
20.44160200000000	43.32887700000000	811.45611099999996	77.68451399999999	0.22660700000000	0.00000000000000	0.16297100000000	0.00000000000000	0.00000000000000	0.00000000000000	0.00000000000000	0.00000000000000	0.00000000000000	0.00000000000000	20.62177900000000	0.00000000000000	0.00000000000000	0.00000000000000	0.00000000000000	
20.44326600000000	42.62085900000000	812.44046900000001	77.60458000000000	0.22578300000000	0.00000000000000	0.16288300000000	0.00000000000000	0.00000000000000	0.00000000000000	0.00000000000000	0.00000000000000	0.00000000000000	0.00000000000000	20.65122200000000	0.00000000000000	0.00000000000000	0.00000000000000	0.00000000000000	
20.44492400000000	41.91044800000000	813.22905300000002	77.51778500000000	0.22495800000000	0.00000000000000	0.16279700000000	0.00000000000000	0.00000000000000	0.00000000000000	0.00000000000000	0.00000000000000	0.00000000000000	0.00000000000000	20.67941800000000	0.00000000000000	0.00000000000000	0.00000000000000	0.00000000000000	
20.44658500000000	41.19819700000000	813.82293700000002	77.42386100000000	0.22412800000000	0.00000000000000	0.16271300000000	0.00000000000000	0.00000000000000	0.00000000000000	0.00000000000000	0.00000000000000	0.00000000000000	0.00000000000000	20.70611200000000	0.00000000000000	0.00000000000000	0.00000000000000	0.00000000000000	
20.44825600000000	40.48463600000000	814.22358899999995	77.32250300000000	0.22329400000000	0.00000000000000	0.16263000000000	0.00000000000000	0.00000000000000	0.00000000000000	0.00000000000000	0.00000000000000	0.00000000000000	0.00000000000000	20.73103600000000	0.00000000000000	0.00000000000000	0.00000000000000	0.00000000000000	
20.44992500000000	39.77026900000000	814.43287699999996	77.21337100000000	0.22245300000000	0.00000000000000	0.16254900000000	0.00000000000000	0.00000000000000	0.00000000000000	0.00000000000000	0.00000000000000	0.00000000000000	0.00000000000000	20.75391500000000	0.00000000000000	0.00000000000000	0.00000000000000	0.00000000000000	
20.45159600000000	39.05557900000000	814.45306300000004	77.09610300000000	0.22160600000000	0.00000000000000	0.16246900000000	0.00000000000000	0.00000000000000	0.00000000000000	0.00000000000000	0.00000000000000	0.00000000000000	0.00000000000000	20.77446700000000	0.00000000000000	0.00000000000000	0.00000000000000	0.00000000000000	
20.45325100000000	38.34103000000000	814.28679799999998	76.97031600000000	0.22075000000000	0.00000000000000	0.16239100000000	0.00000000000000	0.00000000000000	0.00000000000000	0.00000000000000	0.00000000000000	0.00000000000000	0.00000000000000	20.79240600000000	0.00000000000000	0.00000000000000	0.00000000000000	0.00000000000000	
20.45491800000000	37.62706700000000	813.93711599999995	76.83561700000000	0.21988400000000	0.00000000000000	0.16231500000000	0.00000000000000	0.00000000000000	0.00000000000000	0.00000000000000	0.00000000000000	0.00000000000000	0.00000000000000	20.80744800000000	0.00000000000000	0.00000000000000	0.00000000000000	0.00000000000000	
20.45658500000000	36.91412300000000	813.40742799999998	76.69160700000000	0.21900800000000	0.00000000000000	0.16224000000000	0.00000000000000	0.00000000000000	0.00000000000000	0.00000000000000	0.00000000000000	0.00000000000000	0.00000000000000	20.81931300000000	0.00000000000000	0.00000000000000	0.00000000000000	0.00000000000000	
